<svg width="192" height="59" viewBox="0 0 192 59" fill="none" xmlns="http://www.w3.org/2000/svg">
<path d="M191.675 51.9451C191.675 55.0465 189.23 57.5586 186.205 57.5586H7.19972C4.17656 57.5586 1.72266 55.0465 1.72266 51.9451V7.17941C1.72266 4.07953 4.17656 1.55859 7.19972 1.55859H186.204C189.23 1.55859 191.674 4.07953 191.674 7.17941L191.675 51.9451Z" fill="black"/>
<path d="M184.556 1.66181C187.83 1.66181 190.495 4.39325 190.495 7.75V29.5V51.25C190.495 54.6067 187.83 57.3382 184.556 57.3382H7.74809C4.47361 57.3382 1.80912 54.6067 1.80912 51.25V7.75C1.80912 4.39325 4.47361 1.66181 7.74809 1.66181H184.556ZM184.556 0.499998H7.74809C3.86009 0.499998 0.675781 3.76431 0.675781 7.75V51.25C0.675781 55.2357 3.86009 58.5 7.74809 58.5H184.556C188.444 58.5 191.628 55.2357 191.628 51.25V7.75C191.628 3.76431 188.444 0.499998 184.556 0.499998Z" fill="#A6A6A6"/>
<path d="M41.1795 29.9553C41.1376 25.4072 44.9929 23.1946 45.1691 23.0916C42.9858 19.9829 39.6016 19.5581 38.4123 19.5242C35.57 19.2321 32.813 21.1851 31.3651 21.1851C29.8883 21.1851 27.6587 19.5525 25.2556 19.6004C22.1634 19.647 19.2705 21.3954 17.6839 24.1104C14.4095 29.6462 16.8515 37.7814 19.9886 42.256C21.5579 44.4475 23.3916 46.8944 25.7917 46.8083C28.1399 46.7138 29.017 45.3464 31.8506 45.3464C34.6582 45.3464 35.4819 46.8083 37.9297 46.7533C40.4498 46.7138 42.0364 44.5519 43.5508 42.3407C45.3642 39.8289 46.0925 37.3552 46.1214 37.2282C46.0622 37.2084 41.2272 35.4064 41.1795 29.9553Z" fill="white"/>
<path d="M36.5555 16.5806C37.8184 15.0383 38.6826 12.9399 38.4427 10.8105C36.6148 10.8896 34.3288 12.0453 33.0124 13.5538C31.8477 14.8831 30.8073 17.0618 31.0761 19.1108C33.1294 19.2604 35.2377 18.099 36.5555 16.5806Z" fill="white"/>
<path d="M74.0955 45.1118H70.9068L69.1601 39.7241H63.0887L61.4248 45.1118H58.3203L64.3355 26.7695H68.0508L74.0955 45.1118ZM68.6335 37.4637L67.0539 32.6741C66.8868 32.1848 66.5737 31.0326 66.1117 29.2188H66.0556C65.8716 29.9989 65.5754 31.1511 65.1682 32.6741L63.6166 37.4637H68.6335Z" fill="white"/>
<path d="M89.5653 38.3352C89.5653 40.5846 88.946 42.3626 87.7076 43.6678C86.5984 44.8297 85.2209 45.41 83.5767 45.41C81.8019 45.41 80.527 44.7842 79.7505 43.5327H79.6943V50.5H76.7008V36.2388C76.7008 34.8247 76.6629 33.3734 76.5898 31.8848H79.2226L79.3896 33.9812H79.4458C80.4441 32.4017 81.9592 31.6133 83.9923 31.6133C85.5818 31.6133 86.9087 32.2294 87.9702 33.4629C89.0345 34.6979 89.5653 36.3215 89.5653 38.3352ZM86.5155 38.4427C86.5155 37.1554 86.2207 36.0941 85.6281 35.2589C84.9808 34.3878 84.1117 33.9522 83.0221 33.9522C82.2835 33.9522 81.6124 34.1948 81.0128 34.6731C80.4118 35.1555 80.0187 35.7854 79.8347 36.5655C79.7421 36.9294 79.6957 37.2271 79.6957 37.4614V39.6666C79.6957 40.6287 79.9962 41.4405 80.5972 42.1035C81.1981 42.7664 81.9788 43.0972 82.9392 43.0972C84.0667 43.0972 84.9443 42.6699 85.572 41.8182C86.201 40.965 86.5155 39.8403 86.5155 38.4427Z" fill="white"/>
<path d="M105.064 38.3352C105.064 40.5846 104.445 42.3626 103.205 43.6678C102.097 44.8297 100.72 45.41 99.0753 45.41C97.3005 45.41 96.0256 44.7842 95.2505 43.5327H95.1943V50.5H92.2008V36.2388C92.2008 34.8247 92.1629 33.3734 92.0898 31.8848H94.7226L94.8896 33.9812H94.9458C95.9427 32.4017 97.4578 31.6133 99.4923 31.6133C101.08 31.6133 102.407 32.2294 103.472 33.4629C104.532 34.6979 105.064 36.3215 105.064 38.3352ZM102.014 38.4427C102.014 37.1554 101.718 36.0941 101.125 35.2589C100.478 34.3878 99.6117 33.9522 98.5207 33.9522C97.7807 33.9522 97.111 34.1948 96.51 34.6731C95.909 35.1555 95.5173 35.7854 95.3333 36.5655C95.2421 36.9294 95.1943 37.2271 95.1943 37.4614V39.6666C95.1943 40.6287 95.4948 41.4405 96.093 42.1035C96.6939 42.765 97.4746 43.0972 98.4378 43.0972C99.5653 43.0972 100.443 42.6699 101.071 41.8182C101.7 40.965 102.014 39.8403 102.014 38.4427Z" fill="white"/>
<path d="M122.389 39.9673C122.389 41.5275 121.837 42.7969 120.73 43.7769C119.512 44.8478 117.817 45.3826 115.64 45.3826C113.629 45.3826 112.017 45.0022 110.797 44.24L111.491 41.7908C112.805 42.5709 114.247 42.9623 115.818 42.9623C116.945 42.9623 117.823 42.7115 118.454 42.2125C119.081 41.7136 119.394 41.0437 119.394 40.2085C119.394 39.4642 119.136 38.8371 118.618 38.3285C118.102 37.8199 117.242 37.3472 116.04 36.9102C112.768 35.7125 111.134 33.9579 111.134 31.6507C111.134 30.1428 111.707 28.9065 112.854 27.9445C113.997 26.981 115.522 26.5 117.428 26.5C119.129 26.5 120.541 26.7908 121.669 27.3711L120.921 29.7666C119.867 29.2042 118.677 28.923 117.344 28.923C116.291 28.923 115.468 29.178 114.879 29.6852C114.38 30.1387 114.13 30.6914 114.13 31.3461C114.13 32.0711 114.415 32.6706 114.988 33.142C115.487 33.5775 116.392 34.0489 117.707 34.5575C119.314 35.1929 120.495 35.9358 121.255 36.7876C122.012 37.6366 122.389 38.6993 122.389 39.9673Z" fill="white"/>
<path d="M132.288 34.0906H128.988V40.5121C128.988 42.1453 129.569 42.9613 130.735 42.9613C131.27 42.9613 131.713 42.9158 132.064 42.8248L132.147 45.0563C131.558 45.2727 130.781 45.3816 129.819 45.3816C128.637 45.3816 127.713 45.0274 127.046 44.3203C126.382 43.6118 126.048 42.4238 126.048 40.7546V34.0879H124.082V31.8826H126.048V29.4609L128.988 28.5898V31.8826H132.288V34.0906Z" fill="white"/>
<path d="M147.174 38.3895C147.174 40.4225 146.581 42.0916 145.399 43.3969C144.159 44.7407 142.514 45.4106 140.462 45.4106C138.485 45.4106 136.911 44.7669 135.737 43.4796C134.563 42.1922 133.977 40.5672 133.977 38.6087C133.977 36.5592 134.58 34.8804 135.792 33.5752C137.001 32.2685 138.633 31.6152 140.684 31.6152C142.661 31.6152 144.252 32.2589 145.452 33.5476C146.601 34.7977 147.174 36.4117 147.174 38.3895ZM144.068 38.4846C144.068 37.2649 143.803 36.2187 143.265 35.3463C142.637 34.2905 141.74 33.764 140.577 33.764C139.374 33.764 138.46 34.2919 137.832 35.3463C137.294 36.2201 137.029 37.2828 137.029 38.5398C137.029 39.7596 137.294 40.8057 137.832 41.6768C138.48 42.7325 139.384 43.259 140.551 43.259C141.694 43.259 142.591 42.7215 143.238 41.6492C143.79 40.7602 144.068 39.703 144.068 38.4846Z" fill="white"/>
<path d="M156.904 34.4691C156.608 34.4153 156.292 34.3878 155.96 34.3878C154.907 34.3878 154.093 34.7778 153.52 35.5593C153.022 36.2485 152.772 37.1196 152.772 38.1712V45.1109H149.78L149.808 36.05C149.808 34.5256 149.77 33.1377 149.695 31.8862H152.303L152.412 34.4167H152.495C152.811 33.547 153.31 32.8469 153.992 32.3217C154.659 31.849 155.379 31.6133 156.156 31.6133C156.432 31.6133 156.682 31.6326 156.904 31.667V34.4691Z" fill="white"/>
<path d="M170.291 37.8735C170.291 38.4 170.256 38.8438 170.181 39.2063H161.2C161.236 40.5129 161.669 41.5122 162.503 42.2013C163.26 42.8174 164.239 43.1261 165.441 43.1261C166.771 43.1261 167.984 42.918 169.075 42.5004L169.544 44.5403C168.269 45.0861 166.764 45.3576 165.027 45.3576C162.937 45.3576 161.297 44.7539 160.104 43.5479C158.913 42.3419 158.316 40.7224 158.316 38.6908C158.316 36.6964 158.871 35.0356 159.982 33.711C161.144 32.2969 162.715 31.5898 164.692 31.5898C166.634 31.5898 168.104 32.2969 169.103 33.711C169.893 34.8343 170.291 36.2237 170.291 37.8735ZM167.436 37.1113C167.456 36.2402 167.261 35.4877 166.855 34.8523C166.337 34.0349 165.541 33.627 164.469 33.627C163.491 33.627 162.694 34.0253 162.086 34.8247C161.588 35.4601 161.292 36.2223 161.2 37.1099H167.436V37.1113Z" fill="white"/>
<path d="M67.8044 15.4429C67.8044 17.1282 67.3128 18.3968 66.331 19.2487C65.4216 20.0348 64.1292 20.4285 62.4553 20.4285C61.6252 20.4285 60.915 20.3913 60.3203 20.3168V11.1088C61.096 10.9799 61.9316 10.9141 62.8341 10.9141C64.4286 10.9141 65.6305 11.2706 66.441 11.9836C67.349 12.7897 67.8044 13.9424 67.8044 15.4429ZM66.2656 15.4844C66.2656 14.392 65.9842 13.5543 65.4216 12.9702C64.859 12.3874 64.0373 12.0953 62.9552 12.0953C62.4956 12.0953 62.1043 12.1268 61.7798 12.1927V19.1929C61.9595 19.2215 62.2881 19.2344 62.7658 19.2344C63.8827 19.2344 64.7448 18.9151 65.352 18.2765C65.9592 17.6379 66.2656 16.7072 66.2656 15.4844Z" fill="white"/>
<path d="M75.9651 16.9154C75.9651 17.9535 75.6768 18.804 75.1002 19.4712C74.4958 20.157 73.695 20.4992 72.6951 20.4992C71.7314 20.4992 70.964 20.1714 70.3916 19.5127C69.8207 18.8555 69.5352 18.0265 69.5352 17.0271C69.5352 15.9819 69.829 15.1242 70.4195 14.4584C71.01 13.7926 71.8038 13.459 72.8037 13.459C73.7674 13.459 74.5418 13.7869 75.1281 14.4441C75.6851 15.0827 75.9651 15.9074 75.9651 16.9154ZM74.4512 16.9641C74.4512 16.3412 74.3203 15.8072 74.0599 15.3619C73.7535 14.8235 73.3176 14.5543 72.7508 14.5543C72.1645 14.5543 71.7188 14.8235 71.4125 15.3619C71.1506 15.8072 71.0211 16.3498 71.0211 16.9913C71.0211 17.6141 71.152 18.1482 71.4125 18.5935C71.7286 19.1319 72.1687 19.401 72.7369 19.401C73.2939 19.401 73.7312 19.1276 74.046 18.5792C74.3161 18.1253 74.4512 17.5869 74.4512 16.9641Z" fill="white"/>
<path d="M86.9064 13.5977L84.8522 20.3473H83.5152L82.6643 17.4163C82.4485 16.6847 82.273 15.9573 82.1365 15.2357H82.1101C81.9833 15.9773 81.8079 16.7033 81.5822 17.4163L80.6784 20.3473H79.3261L77.3945 13.5977H78.8944L79.6367 16.8064C79.8164 17.5652 79.964 18.2883 80.0824 18.9727H80.1088C80.2174 18.4086 80.3971 17.6898 80.6506 16.8207L81.5822 13.5991H82.7716L83.6643 16.752C83.8801 17.5208 84.0556 18.2611 84.1907 18.9741H84.2311C84.3299 18.2797 84.479 17.5395 84.6767 16.752L85.4733 13.5991H86.9064V13.5977Z" fill="white"/>
<path d="M94.4693 20.3464H93.0098V16.4805C93.0098 15.2892 92.5697 14.6936 91.6868 14.6936C91.2536 14.6936 90.9041 14.8568 90.6325 15.1847C90.3637 15.5126 90.2273 15.8992 90.2273 16.3416V20.345H88.7678V15.5255C88.7678 14.9327 88.7497 14.2898 88.7148 13.594H89.9975L90.0657 14.6492H90.1061C90.276 14.3213 90.5295 14.0507 90.8623 13.8345C91.2578 13.5825 91.7007 13.4551 92.1853 13.4551C92.7981 13.4551 93.3078 13.6584 93.7131 14.0665C94.2172 14.5662 94.4693 15.3122 94.4693 16.303V20.3464Z" fill="white"/>
<path d="M98.4973 20.3466H97.0391V10.5H98.4973V20.3466Z" fill="white"/>
<path d="M107.086 16.9154C107.086 17.9535 106.798 18.804 106.221 19.4712C105.617 20.157 104.815 20.4992 103.816 20.4992C102.851 20.4992 102.084 20.1714 101.513 19.5127C100.942 18.8555 100.656 18.0265 100.656 17.0271C100.656 15.9819 100.95 15.1242 101.541 14.4584C102.131 13.7926 102.925 13.459 103.923 13.459C104.889 13.459 105.661 13.7869 106.249 14.4441C106.806 15.0827 107.086 15.9074 107.086 16.9154ZM105.571 16.9641C105.571 16.3412 105.44 15.8072 105.18 15.3619C104.875 14.8235 104.437 14.5543 103.872 14.5543C103.284 14.5543 102.839 14.8235 102.534 15.3619C102.272 15.8072 102.142 16.3498 102.142 16.9913C102.142 17.6141 102.273 18.1482 102.534 18.5935C102.85 19.1319 103.29 19.401 103.858 19.401C104.415 19.401 104.851 19.1276 105.166 18.5792C105.437 18.1253 105.571 17.5869 105.571 16.9641Z" fill="white"/>
<path d="M114.151 20.346H112.841L112.732 19.5686H112.692C112.243 20.1885 111.604 20.4992 110.774 20.4992C110.154 20.4992 109.653 20.2945 109.276 19.8879C108.933 19.5185 108.762 19.0588 108.762 18.5133C108.762 17.6886 109.096 17.06 109.769 16.6247C110.44 16.1895 111.384 15.9761 112.6 15.9861V15.8601C112.6 14.971 112.146 14.5271 111.236 14.5271C110.589 14.5271 110.018 14.6946 109.525 15.0268L109.228 14.0417C109.838 13.6537 110.592 13.459 111.48 13.459C113.196 13.459 114.057 14.3897 114.057 16.251V18.7367C114.057 19.4111 114.089 19.948 114.151 20.346ZM112.636 18.0265V16.9856C111.026 16.9569 110.221 17.4108 110.221 18.3458C110.221 18.698 110.313 18.9615 110.501 19.1376C110.689 19.3137 110.929 19.401 111.214 19.401C111.534 19.401 111.834 19.2965 112.107 19.0889C112.381 18.8799 112.55 18.615 112.612 18.2899C112.628 18.2169 112.636 18.1282 112.636 18.0265Z" fill="white"/>
<path d="M122.443 20.3466H121.148L121.079 19.2627H121.039C120.625 20.0875 119.921 20.4998 118.93 20.4998C118.139 20.4998 117.481 20.1805 116.958 19.542C116.436 18.9034 116.176 18.0743 116.176 17.0563C116.176 15.9638 116.458 15.079 117.027 14.4031C117.577 13.7731 118.251 13.4581 119.053 13.4581C119.935 13.4581 120.551 13.7631 120.902 14.3745H120.93V10.5H122.391V18.5282C122.391 19.1854 122.408 19.7911 122.443 20.3466ZM120.93 17.5002V16.3748C120.93 16.18 120.916 16.0225 120.89 15.9023C120.808 15.5414 120.631 15.2379 120.362 14.9931C120.091 14.7482 119.763 14.6251 119.386 14.6251C118.841 14.6251 118.415 14.847 118.102 15.2923C117.791 15.7376 117.634 16.306 117.634 17.0005C117.634 17.6677 117.783 18.2089 118.082 18.6256C118.398 19.0695 118.825 19.2914 119.358 19.2914C119.837 19.2914 120.22 19.1067 120.511 18.7358C120.792 18.3936 120.93 17.9813 120.93 17.5002Z" fill="white"/>
<path d="M134.926 16.9154C134.926 17.9535 134.638 18.804 134.061 19.4712C133.457 20.157 132.657 20.4992 131.656 20.4992C130.694 20.4992 129.926 20.1714 129.353 19.5127C128.782 18.8555 128.496 18.0265 128.496 17.0271C128.496 15.9819 128.79 15.1242 129.38 14.4584C129.971 13.7926 130.765 13.459 131.766 13.459C132.728 13.459 133.504 13.7869 134.089 14.4441C134.646 15.0827 134.926 15.9074 134.926 16.9154ZM133.414 16.9641C133.414 16.3412 133.283 15.8072 133.022 15.3619C132.714 14.8235 132.28 14.5543 131.712 14.5543C131.127 14.5543 130.681 14.8235 130.373 15.3619C130.112 15.8072 129.982 16.3498 129.982 16.9913C129.982 17.6141 130.113 18.1482 130.373 18.5935C130.69 19.1319 131.13 19.401 131.698 19.401C132.255 19.401 132.694 19.1276 133.008 18.5792C133.277 18.1253 133.414 17.5869 133.414 16.9641Z" fill="white"/>
<path d="M142.776 20.3464H141.318V16.4805C141.318 15.2892 140.878 14.6936 139.994 14.6936C139.561 14.6936 139.211 14.8568 138.941 15.1847C138.671 15.5126 138.536 15.8992 138.536 16.3416V20.345H137.075V15.5255C137.075 14.9327 137.058 14.2898 137.023 13.594H138.305L138.373 14.6492H138.413C138.585 14.3213 138.838 14.0507 139.17 13.8345C139.566 13.5825 140.008 13.4551 140.494 13.4551C141.105 13.4551 141.615 13.6584 142.02 14.0665C142.526 14.5662 142.776 15.3122 142.776 16.303V20.3464Z" fill="white"/>
<path d="M152.595 14.721H150.988V17.9998C150.988 18.8331 151.274 19.2498 151.839 19.2498C152.101 19.2498 152.318 19.2269 152.49 19.1796L152.527 20.3179C152.239 20.4296 151.86 20.4855 151.394 20.4855C150.817 20.4855 150.369 20.3051 150.044 19.9442C149.719 19.5834 149.557 18.9763 149.557 18.1244V14.721H148.598V13.597H149.557V12.3599L150.987 11.916V13.5955H152.594V14.721H152.595Z" fill="white"/>
<path d="M160.323 20.3466H158.862V16.5094C158.862 15.2995 158.422 14.6938 157.54 14.6938C156.863 14.6938 156.401 15.0446 156.147 15.7462C156.104 15.8937 156.079 16.0741 156.079 16.286V20.3452H154.621V10.5H156.079V14.5678H156.107C156.567 13.8276 157.225 13.4581 158.079 13.4581C158.683 13.4581 159.183 13.6615 159.58 14.0695C160.075 14.5778 160.323 15.3338 160.323 16.3332V20.3466Z" fill="white"/>
<path d="M168.294 16.6531C168.294 16.9223 168.274 17.1485 168.239 17.3332H163.862C163.882 18.0005 164.091 18.5088 164.496 18.861C164.866 19.176 165.344 19.3335 165.929 19.3335C166.577 19.3335 167.167 19.2275 167.699 19.0142L167.927 20.0566C167.305 20.3343 166.572 20.4732 165.724 20.4732C164.708 20.4732 163.907 20.1654 163.327 19.5497C162.745 18.934 162.457 18.1078 162.457 17.0712C162.457 16.0532 162.726 15.2055 163.268 14.5297C163.833 13.8081 164.598 13.4473 165.563 13.4473C166.507 13.4473 167.224 13.8081 167.709 14.5297C168.1 15.1025 168.294 15.8112 168.294 16.6531ZM166.901 16.2651C166.912 15.8198 166.816 15.4361 166.618 15.1125C166.365 14.6958 165.979 14.4868 165.457 14.4868C164.981 14.4868 164.592 14.6901 164.295 15.0982C164.053 15.4232 163.91 15.8112 163.862 16.2651H166.901Z" fill="white"/>
</svg>
