<svg width="191" height="59" viewBox="0 0 191 59" fill="none" xmlns="http://www.w3.org/2000/svg">
<path d="M183.926 58.5H7.07407C3.1851 58.5 0 55.2357 0 51.25V7.75001C0 3.76433 3.1851 0.500013 7.07407 0.500013H183.926C187.815 0.500013 191 3.76433 191 7.75001V51.25C191 55.2357 187.815 58.5 183.926 58.5Z" fill="black"/>
<path d="M183.926 1.66182C187.201 1.66182 189.866 4.39326 189.866 7.75001V51.25C189.866 54.6068 187.201 57.3382 183.926 57.3382H7.07407C3.79878 57.3382 1.13362 54.6068 1.13362 51.25V7.75001C1.13362 4.39326 3.79878 1.66182 7.07407 1.66182H183.926ZM183.926 0.500013H7.07407C3.1851 0.500013 0 3.76432 0 7.75001V51.25C0 55.2357 3.1851 58.5 7.07407 58.5H183.926C187.815 58.5 191 55.2357 191 51.25V7.75001C191 3.76432 187.815 0.500013 183.926 0.500013Z" fill="#A6A6A6"/>
<path d="M65.8021 16.3143C65.8021 17.4148 65.4683 18.2962 64.8106 18.9535C64.0545 19.7328 63.0696 20.1248 61.8628 20.1248C60.7094 20.1248 59.7245 19.7262 58.9166 18.9403C58.1071 18.143 57.7031 17.1644 57.7031 15.9931C57.7031 14.8218 58.1071 13.8432 58.9166 13.0524C59.7245 12.26 60.7094 11.8613 61.8628 11.8613C62.437 11.8613 62.9845 11.9783 63.5069 12.1958C64.0277 12.4149 64.4517 12.7114 64.7589 13.0771L64.0611 13.7723C63.5253 13.148 62.7959 12.8399 61.8628 12.8399C61.0215 12.8399 60.2921 13.1298 59.6728 13.7147C59.0602 14.3012 58.7531 15.0606 58.7531 15.9931C58.7531 16.9255 59.0602 17.6916 59.6728 18.2781C60.2921 18.8563 61.0215 19.1529 61.8628 19.1529C62.7558 19.1529 63.507 18.8563 64.0995 18.2715C64.4901 17.8843 64.7121 17.3506 64.7705 16.6685H61.8628V15.7163H65.742C65.7888 15.9222 65.8021 16.1216 65.8021 16.3143Z" fill="white" stroke="white" stroke-width="0.13674" stroke-miterlimit="10"/>
<path d="M71.9011 13.0754H68.745V15.6944H71.5902V16.6902H68.745V19.3092H71.9011V20.3241H67.8516V12.0605H71.9011V13.0754Z" fill="white" stroke="white" stroke-width="0.13674" stroke-miterlimit="10"/>
<path d="M77.5508 20.3241H76.4122V13.0754H73.9453V12.0605H80.0195V13.0754H77.5508V20.3241Z" fill="white" stroke="white" stroke-width="0.13674" stroke-miterlimit="10"/>
<path d="M83.9961 20.3241V12.0605H85.0085V20.3241H83.9961Z" fill="white" stroke="white" stroke-width="0.13674" stroke-miterlimit="10"/>
<path d="M90.066 20.3241H88.938V13.0754H86.4648V12.0605H92.5391V13.0754H90.066V20.3241Z" fill="white" stroke="white" stroke-width="0.13674" stroke-miterlimit="10"/>
<path d="M102.806 18.9272C102.029 19.7262 101.067 20.1248 99.92 20.1248C98.766 20.1248 97.8041 19.7262 97.0277 18.9272C96.2529 18.1298 95.8672 17.1512 95.8672 15.9931C95.8672 14.8349 96.2529 13.8564 97.0277 13.059C97.8041 12.26 98.766 11.8613 99.92 11.8613C101.061 11.8613 102.023 12.26 102.799 13.0656C103.58 13.8695 103.966 14.8415 103.966 15.9931C103.966 17.1512 103.58 18.1298 102.806 18.9272ZM97.7779 18.2649C98.3622 18.8563 99.073 19.1529 99.92 19.1529C100.76 19.1529 101.478 18.8563 102.056 18.2649C102.638 17.6735 102.934 16.914 102.934 15.9931C102.934 15.0722 102.638 14.3127 102.056 13.7213C101.478 13.1299 100.76 12.8333 99.92 12.8333C99.073 12.8333 98.3622 13.1299 97.7779 13.7213C97.1951 14.3127 96.8997 15.0722 96.8997 15.9931C96.8997 16.914 97.1951 17.6735 97.7779 18.2649Z" fill="white" stroke="white" stroke-width="0.13674" stroke-miterlimit="10"/>
<path d="M106.125 20.3241V12.0605H107.562L112.03 18.4873H112.081L112.03 16.8987V12.0605H113.212V20.3241H111.978L107.299 13.5802H107.248L107.299 15.1757V20.3241H106.125Z" fill="white" stroke="white" stroke-width="0.13674" stroke-miterlimit="10"/>
<path d="M95.5169 34.2063C92.1513 34.2063 89.4019 36.8082 89.4019 40.3981C89.4019 43.9588 92.1513 46.5879 95.5169 46.5879C98.8897 46.5879 101.639 43.9588 101.639 40.3981C101.639 36.8082 98.8897 34.2063 95.5169 34.2063ZM95.5169 44.1498C93.6702 44.1498 92.0815 42.6015 92.0815 40.3981C92.0815 38.1655 93.6702 36.6445 95.5169 36.6445C97.3636 36.6445 98.9596 38.1655 98.9596 40.3981C98.9596 42.6015 97.3636 44.1498 95.5169 44.1498ZM82.1745 34.2063C78.8017 34.2063 76.0594 36.8082 76.0594 40.3981C76.0594 43.9588 78.8017 46.5879 82.1745 46.5879C85.5455 46.5879 88.2895 43.9588 88.2895 40.3981C88.2895 36.8082 85.5455 34.2063 82.1745 34.2063ZM82.1745 44.1498C80.326 44.1498 78.7318 42.6015 78.7318 40.3981C78.7318 38.1655 80.326 36.6445 82.1745 36.6445C84.0212 36.6445 85.6099 38.1655 85.6099 40.3981C85.6099 42.6015 84.0212 44.1498 82.1745 44.1498ZM66.2975 36.1041V38.735H72.4824C72.3015 40.2052 71.8179 41.286 71.0763 42.0392C70.1736 42.949 68.7675 43.9588 66.2975 43.9588C62.4912 43.9588 59.5107 40.8384 59.5107 36.972C59.5107 33.1056 62.4912 29.9851 66.2975 29.9851C68.3555 29.9851 69.853 30.8021 70.9581 31.861L72.7833 30.007C71.2376 28.5077 69.1813 27.356 66.2975 27.356C61.078 27.356 56.6914 31.67 56.6914 36.972C56.6914 42.2739 61.078 46.5879 66.2975 46.5879C69.1186 46.5879 71.2375 45.6491 72.9033 43.8878C74.6103 42.1539 75.1423 39.7157 75.1423 37.7471C75.1423 37.1357 75.0922 36.5735 75.0026 36.1041H66.2975ZM131.22 38.1437C130.717 36.7591 129.164 34.2063 126.001 34.2063C122.866 34.2063 120.257 36.7154 120.257 40.3981C120.257 43.866 122.84 46.5879 126.302 46.5879C129.101 46.5879 130.717 44.854 131.382 43.8442L129.304 42.4377C128.611 43.4675 127.667 44.1498 126.302 44.1498C124.946 44.1498 123.973 43.5185 123.35 42.2739L131.502 38.8478L131.22 38.1437ZM122.909 40.2052C122.84 37.818 124.735 36.5953 126.092 36.5953C127.156 36.5953 128.059 37.1357 128.36 37.909L122.909 40.2052ZM116.284 46.2113H118.963V28.0164H116.284V46.2113ZM111.895 35.5855H111.806C111.204 34.8614 110.056 34.2063 108.601 34.2063C105.549 34.2063 102.759 36.9283 102.759 40.4181C102.759 43.8878 105.549 46.5879 108.601 46.5879C110.056 46.5879 111.204 45.9275 111.806 45.1815H111.895V46.0694C111.895 48.4366 110.651 49.7084 108.643 49.7084C107.006 49.7084 105.99 48.5075 105.571 47.4977L103.24 48.4857C103.912 50.1269 105.691 52.1465 108.643 52.1465C111.784 52.1465 114.435 50.2688 114.435 45.7V34.583H111.895V35.5855ZM108.831 44.1498C106.984 44.1498 105.438 42.5796 105.438 40.4181C105.438 38.2365 106.984 36.6445 108.831 36.6445C110.651 36.6445 112.085 38.2365 112.085 40.4181C112.085 42.5796 110.651 44.1498 108.831 44.1498ZM143.766 28.0164H137.357V46.2113H140.029V39.3173H143.766C146.734 39.3173 149.644 37.1357 149.644 33.6659C149.644 30.198 146.727 28.0164 143.766 28.0164ZM143.836 36.7864H140.029V30.5474H143.836C145.831 30.5474 146.97 32.2304 146.97 33.6659C146.97 35.0742 145.831 36.7864 143.836 36.7864ZM160.356 34.1718C158.425 34.1718 156.417 35.0378 155.591 36.9574L157.963 37.9672C158.473 36.9574 159.412 36.6299 160.404 36.6299C161.79 36.6299 163.197 37.476 163.218 38.9698V39.1608C162.734 38.877 161.699 38.4567 160.426 38.4567C157.871 38.4567 155.269 39.885 155.269 42.5505C155.269 44.9886 157.361 46.5588 159.713 46.5588C161.511 46.5588 162.503 45.7346 163.127 44.7757H163.218V46.1822H165.799V39.2027C165.799 35.9767 163.428 34.1718 160.356 34.1718ZM160.033 44.1426C159.159 44.1426 157.941 43.7022 157.941 42.6015C157.941 41.1932 159.46 40.6528 160.775 40.6528C161.952 40.6528 162.503 40.9166 163.218 41.2641C163.008 42.949 161.581 44.1426 160.033 44.1426ZM175.203 34.5702L172.131 42.4577H172.04L168.864 34.5702H165.982L170.754 45.5927L168.031 51.7262H170.823L178.176 34.5702H175.203ZM151.113 46.2113H153.793V28.0164H151.113V46.2113Z" fill="white"/>
<path d="M38.6745 35.6035L33.1367 29.6308V29.2079L38.6812 23.2352L38.8054 23.3129L45.3716 27.3375C47.2455 28.4796 47.2455 30.3591 45.3716 31.5084L38.8054 35.5258L38.6745 35.6035Z" fill="url(#paint0_linear_1537_3219)"/>
<path d="M38.8041 35.5261L33.1355 29.4196L16.4062 47.4426C17.0286 48.1474 18.0436 48.2324 19.1978 47.5276L38.8041 35.5261Z" fill="url(#paint1_linear_1537_3219)"/>
<path d="M38.8041 23.3135L19.1978 11.312C18.0436 10.6144 17.0286 10.6993 16.4062 11.4041L33.1355 29.4199L38.8041 23.3135Z" fill="url(#paint2_linear_1537_3219)"/>
<path d="M16.8553 10.935C16.4397 11.3808 16.1992 12.075 16.1992 12.974V45.0408C16.1992 45.9398 16.4397 46.634 16.8553 47.0799L16.9579 47.1777L34.491 29.2159V28.7917L16.9579 10.8298L16.8553 10.935Z" fill="url(#paint3_linear_1537_3219)"/>
<defs>
<linearGradient id="paint0_linear_1537_3219" x1="47.8117" y1="29.4173" x2="15.3372" y2="29.4173" gradientUnits="userSpaceOnUse">
<stop stop-color="#FFE000"/>
<stop offset="0.4087" stop-color="#FFBD00"/>
<stop offset="0.7754" stop-color="#FFA500"/>
<stop offset="1" stop-color="#FF9C00"/>
</linearGradient>
<linearGradient id="paint1_linear_1537_3219" x1="35.7217" y1="26.1" x2="2.90979" y2="-4.35944" gradientUnits="userSpaceOnUse">
<stop stop-color="#FF3A44"/>
<stop offset="1" stop-color="#C31162"/>
</linearGradient>
<linearGradient id="paint2_linear_1537_3219" x1="12.1952" y1="58.0801" x2="26.8471" y2="44.4787" gradientUnits="userSpaceOnUse">
<stop stop-color="#32A071"/>
<stop offset="0.0685" stop-color="#2DA771"/>
<stop offset="0.4762" stop-color="#15CF74"/>
<stop offset="0.8009" stop-color="#06E775"/>
<stop offset="1" stop-color="#00F076"/>
</linearGradient>
<linearGradient id="paint3_linear_1537_3219" x1="32.9343" y1="45.3747" x2="8.60713" y2="21.6379" gradientUnits="userSpaceOnUse">
<stop stop-color="#00A0FF"/>
<stop offset="0.0066" stop-color="#00A1FF"/>
<stop offset="0.2601" stop-color="#00BEFF"/>
<stop offset="0.5122" stop-color="#00D2FF"/>
<stop offset="0.7604" stop-color="#00DFFF"/>
<stop offset="1" stop-color="#00E3FF"/>
</linearGradient>
</defs>
</svg>
