<svg width="170" height="79" viewBox="0 0 170 79" fill="none" xmlns="http://www.w3.org/2000/svg">
<path d="M50.2109 31.7919H56.0486V25.0863H63.245V31.7919H69.0827V13.6106H63.245V19.7418H56.0486V13.6106H50.2109V31.7919Z" fill="white"/>
<path d="M72.1021 31.7919H88.357V26.822H77.7008V24.9114H86.9353V20.2787H77.7008V18.7178H88.1557V13.6106H72.1021V31.7919Z" fill="white"/>
<path d="M90.5965 31.7919H125.924C128.759 31.7919 131.091 31.026 132.919 29.4942C134.748 27.9625 135.662 25.7606 135.662 22.8885V22.4265C135.662 19.5378 134.752 17.3484 132.932 15.8583C131.12 14.3598 128.784 13.6106 125.924 13.6106H90.5965V31.7919ZM96.2957 27.1342V18.4056H125.421C126.704 18.4056 127.744 18.6804 128.541 19.2298C129.346 19.7709 129.749 20.7283 129.749 22.1018V23.2881C129.749 24.67 129.338 25.6565 128.516 26.2476C127.702 26.8386 126.671 27.1342 125.421 27.1342H96.2957Z" fill="white"/>
<path d="M137.809 22.876C137.809 26.0228 138.803 28.3537 140.791 29.8688C142.779 31.3756 145.387 32.129 148.617 32.129C151.091 32.129 153.112 31.821 154.681 31.205C156.258 30.5889 157.428 29.9396 158.191 29.257V21.3276L148.44 21.3401V25.7731H152.605V26.7096C152.177 26.9427 151.649 27.1217 151.02 27.2465C150.399 27.3714 149.619 27.4338 148.679 27.4338C147.212 27.4338 146.042 27.1591 145.169 26.6097C144.305 26.0519 143.873 25.1196 143.873 23.8126V21.5899C143.873 20.3079 144.284 19.4088 145.106 18.8926C145.928 18.3765 146.968 18.1184 148.227 18.1184C149.585 18.1184 150.596 18.235 151.259 18.4681C151.921 18.6929 152.311 19.0966 152.429 19.6793L152.441 19.9416H158.027L158.015 19.4421C157.964 17.4441 157.109 15.9165 155.448 14.8593C153.796 13.8021 151.464 13.2734 148.453 13.2734C145.366 13.2734 142.821 14.031 140.816 15.5461C138.812 17.0529 137.809 19.3547 137.809 22.4515V22.876Z" fill="white"/>
<path d="M50.2109 54.8972H92.0181V49.9273H55.8096V48.0168H90.5965V43.3841H55.8096V41.8232H91.8168V36.7159H50.2109V54.8972Z" fill="white"/>
<path d="M93.9053 54.8972H99.743V48.1916H106.939V54.8972H112.777V36.7159H106.939V42.8471H99.743V36.7159H93.9053V54.8972Z" fill="white"/>
<path d="M115.004 45.9814C115.004 49.1365 116.01 51.4674 118.023 52.9742C120.036 54.481 122.586 55.2344 125.673 55.2344C128.751 55.2344 131.305 54.481 133.335 52.9742C135.364 51.4674 136.379 49.1365 136.379 45.9814V45.5568C136.379 42.435 135.364 40.1249 133.335 38.6265C131.313 37.128 128.759 36.3788 125.673 36.3788C122.586 36.3788 120.036 37.128 118.023 38.6265C116.01 40.1249 115.004 42.435 115.004 45.5568V45.9814ZM121.093 46.9179V44.6578C121.093 43.3674 121.5 42.4559 122.314 41.9231C123.136 41.382 124.255 41.1197 125.673 41.1364C127.09 41.1447 128.214 41.4111 129.044 41.9356C129.883 42.46 130.303 43.3674 130.303 44.6578V46.9304C130.303 48.2541 129.883 49.1947 129.044 49.7525C128.214 50.3019 127.09 50.5725 125.673 50.5642C124.255 50.5558 123.136 50.2811 122.314 49.74C121.5 49.1906 121.093 48.2499 121.093 46.9179Z" fill="white"/>
<path d="M137.826 45.9814C137.826 49.1282 138.82 51.4591 140.808 52.9742C142.796 54.481 145.404 55.2344 148.633 55.2344C151.108 55.2344 153.129 54.9263 154.697 54.3103C156.274 53.6943 157.444 53.0449 158.208 52.3623V44.433L148.457 44.4455V48.8784H152.622V49.8149C152.194 50.048 151.665 50.227 151.036 50.3519C150.416 50.4768 149.636 50.5392 148.696 50.5392C147.228 50.5392 146.058 50.2645 145.186 49.715C144.322 49.1573 143.89 48.2249 143.89 46.9179V44.6952C143.89 43.4132 144.301 42.5141 145.123 41.998C145.945 41.4819 146.985 41.2238 148.243 41.2238C149.602 41.2238 150.613 41.3403 151.275 41.5734C151.938 41.7982 152.328 42.202 152.445 42.7847L152.458 43.0469H158.044L158.031 42.5474C157.981 40.5495 157.126 39.0219 155.465 37.9647C153.813 36.9074 151.481 36.3788 148.47 36.3788C145.383 36.3788 142.838 37.1363 140.833 38.6514C138.828 40.1582 137.826 42.46 137.826 45.5568V45.9814Z" fill="white"/>
<path d="M114.443 60.7414C114.631 62.4104 115.209 63.5992 116.176 64.3078C117.147 65.0159 118.413 65.2824 119.973 65.1073C121.015 64.9905 121.86 64.7322 122.509 64.3326C123.157 63.9284 123.647 63.5116 123.978 63.0823L123.496 58.8223L119.19 59.3054L119.431 61.4354L120.716 61.2912L120.846 62.4392C120.684 62.588 120.521 62.6997 120.356 62.7743C120.191 62.8442 119.985 62.8929 119.74 62.9205C119.207 62.9802 118.757 62.8767 118.389 62.6098C118.025 62.3378 117.796 61.7845 117.702 60.95L117.506 59.2212C117.415 58.4143 117.488 57.8412 117.727 57.5016C117.964 57.1575 118.312 56.9597 118.771 56.9082C119.252 56.8542 119.611 56.9121 119.846 57.0818C120.085 57.251 120.227 57.5316 120.271 57.9235L120.282 58.0203L123.352 57.6759L123.341 57.5091C123.278 56.5029 122.821 55.7395 121.97 55.2187C121.119 54.6979 120.017 54.5134 118.665 54.6651C117.187 54.8308 116.055 55.3664 115.266 56.2719C114.482 57.1769 114.185 58.4639 114.374 60.1328L114.443 60.7414Z" fill="#BB6BD9"/>
<path d="M124.16 64.4415L126.973 64.1259L128.478 57.4651C128.515 57.3021 128.54 57.1476 128.552 57.0015C128.563 56.8509 128.571 56.7123 128.575 56.5857L128.617 56.581C128.649 56.7034 128.688 56.8345 128.731 56.9744C128.775 57.1142 128.834 57.2616 128.908 57.4168L131.905 63.5726L135.218 63.201L130.214 53.5444L126.776 53.9302L124.16 64.4415ZM126.626 62.428L132.065 61.8179L131.241 59.7602L126.949 60.2418L126.626 62.428Z" fill="#BB6BD9"/>
<path d="M135.753 63.141L138.219 62.8643L137.613 57.5117C137.594 57.3457 137.569 57.1641 137.537 56.9669C137.51 56.7646 137.48 56.5812 137.447 56.4168L137.502 56.4106C137.544 56.5739 137.593 56.7552 137.648 56.9545C137.708 57.1485 137.773 57.3257 137.842 57.486L140.171 62.6454L142.685 62.3633L143.823 56.8151C143.855 56.6434 143.876 56.4566 143.886 56.2547C143.9 56.0477 143.909 55.8599 143.914 55.6913L143.962 55.6859C143.967 55.8534 143.976 56.0391 143.99 56.243C144.008 56.4418 144.026 56.6242 144.045 56.7901L144.651 62.1428L147.728 61.7976L146.588 51.7285L142.504 52.1867L141.374 57.552C141.342 57.7283 141.315 57.8831 141.293 58.0163C141.275 58.1491 141.266 58.3158 141.265 58.5167L141.23 58.5206C141.185 58.3249 141.139 58.1667 141.092 58.0458C141.045 57.9204 140.984 57.7732 140.908 57.6042L138.628 52.6215L134.613 53.0719L135.753 63.141Z" fill="#BB6BD9"/>
<path d="M149.492 61.5996L156.938 60.7643L156.684 58.5167L152.273 59.0115L152.068 57.1997L155.777 56.7836L155.531 54.6121L151.822 55.0282L151.645 53.4653L155.973 52.9798L155.715 50.7046L148.352 51.5306L149.492 61.5996Z" fill="#BB6BD9"/>
<path d="M157.364 57.7541C157.483 58.8098 157.98 59.5479 158.853 59.9682C159.73 60.388 160.792 60.528 162.037 60.3883C163.301 60.2465 164.297 59.8617 165.023 59.234C165.754 58.6057 166.058 57.7499 165.935 56.6665C165.818 55.6758 165.409 54.9629 164.708 54.528C164.012 54.0926 163.149 53.8041 162.12 53.6628C161.206 53.5366 160.644 53.4386 160.434 53.3687C160.229 53.2937 160.112 53.1387 160.086 52.9035C160.062 52.6961 160.127 52.5231 160.28 52.3845C160.433 52.2413 160.688 52.1497 161.044 52.1097C161.401 52.0697 161.679 52.1295 161.88 52.289C162.086 52.4481 162.206 52.6774 162.24 52.9771L162.263 53.1845L165.285 52.8456L165.25 52.5413C165.141 51.5777 164.676 50.8688 163.856 50.4146C163.035 49.9604 162.009 49.8024 160.778 49.9406C159.537 50.0798 158.565 50.4643 157.862 51.094C157.164 51.7232 156.872 52.5381 156.985 53.5385C157.089 54.414 157.487 55.072 158.179 55.5126C158.876 55.948 159.752 56.2279 160.807 56.3524C161.729 56.459 162.29 56.5735 162.492 56.6956C162.693 56.8177 162.811 57.0333 162.846 57.3421C162.873 57.5819 162.795 57.7821 162.612 57.9427C162.428 58.1034 162.151 58.2045 161.781 58.246C161.401 58.2886 161.095 58.232 160.861 58.0761C160.628 57.9202 160.491 57.6624 160.45 57.3028L160.424 57.0746L157.326 57.4221L157.364 57.7541Z" fill="#BB6BD9"/>
<path fill-rule="evenodd" clip-rule="evenodd" d="M115.063 65.8198L115.059 65.8169C113.522 64.6899 112.794 62.9233 112.571 60.9513L112.502 60.3428C112.279 58.3708 112.593 56.4873 113.84 55.0481L113.843 55.0444C115.01 53.7047 116.622 53.0083 118.453 52.8029C120.073 52.6212 121.635 52.8151 122.954 53.622C123.623 54.0309 124.151 54.5511 124.53 55.1611L124.948 53.4795C125.138 52.7188 125.782 52.1557 126.565 52.068L130.003 51.6823C130.779 51.5952 131.528 51.9943 131.886 52.6853L132.895 54.6319L132.742 53.2818C132.626 52.2533 133.369 51.3256 134.402 51.2097L138.417 50.7593C139.226 50.6685 140.002 51.1065 140.34 51.8446L140.554 52.3112L140.661 51.8021C140.828 51.0107 141.485 50.4151 142.292 50.3245L146.377 49.8663C146.696 49.8306 147.005 49.8764 147.284 49.9871C147.53 49.8174 147.822 49.7042 148.141 49.6684L155.503 48.8424C156.085 48.7772 156.634 48.9829 157.024 49.3585C158.028 48.6189 159.249 48.2261 160.566 48.0784C162.064 47.9104 163.512 48.0806 164.77 48.7768C166.145 49.5381 166.946 50.7928 167.12 52.3315L167.154 52.6358C167.208 53.1127 167.077 53.568 166.818 53.9307C167.382 54.6465 167.694 55.5182 167.804 56.448L167.805 56.4567C167.986 58.0576 167.523 59.5583 166.255 60.6499C165.162 61.5948 163.769 62.0799 162.247 62.2506C160.918 62.3997 159.637 62.2978 158.474 61.8465C158.175 62.2675 157.703 62.5643 157.148 62.6266L149.702 63.462C149.383 63.4977 149.074 63.4519 148.795 63.3412C148.548 63.5109 148.257 63.6241 147.938 63.6599L144.861 64.0051C144.5 64.0455 144.152 63.9817 143.846 63.8377C143.578 64.0475 143.251 64.1857 142.895 64.2256L140.38 64.5077C140.027 64.5473 139.681 64.4863 139.374 64.3437C139.109 64.549 138.786 64.6865 138.429 64.7267L135.963 65.0033C135.872 65.0135 135.782 65.0171 135.693 65.0144C135.606 65.0368 135.518 65.0532 135.428 65.0633L132.115 65.435C131.322 65.524 130.558 65.1052 130.21 64.3901L129.99 63.9366L128.917 64.0569L128.809 64.5371C128.633 65.3163 127.98 65.8988 127.183 65.9882L124.37 66.3038C123.974 66.3483 123.579 66.2658 123.24 66.0767C122.339 66.5705 121.296 66.8449 120.183 66.9697C118.3 67.1809 116.519 66.8821 115.063 65.8198ZM122.277 64.4645C121.663 64.7896 120.895 65.0039 119.972 65.1074C118.412 65.2825 117.146 65.016 116.175 64.3079C115.208 63.5992 114.631 62.4104 114.442 60.7415L114.373 60.1329C114.184 58.464 114.481 57.177 115.265 56.272C116.054 55.3665 117.187 54.8309 118.664 54.6652C120.016 54.5135 121.118 54.698 121.969 55.2188C122.27 55.4025 122.521 55.6164 122.723 55.8606C122.985 56.1771 123.165 56.5445 123.262 56.9627C123.269 56.9921 123.275 57.0219 123.281 57.0518C123.31 57.1983 123.33 57.3507 123.34 57.5092L123.352 57.6759L120.282 58.0204L120.271 57.9235C120.243 57.6792 120.177 57.4781 120.074 57.3203C120.011 57.2251 119.935 57.1456 119.845 57.0819C119.61 56.9122 119.252 56.8543 118.77 56.9083C118.312 56.9598 117.963 57.1575 117.726 57.5017C117.56 57.7373 117.474 58.0855 117.468 58.5462C117.465 58.7493 117.477 58.9743 117.505 59.2212L117.701 60.9501C117.729 61.1967 117.769 61.4187 117.82 61.6161C117.943 62.087 118.132 62.4182 118.388 62.6098C118.724 62.8531 119.127 62.9607 119.599 62.9326C119.645 62.9298 119.692 62.9258 119.739 62.9206C119.984 62.893 120.19 62.8443 120.355 62.7744C120.52 62.6998 120.684 62.5881 120.845 62.4393L120.715 61.2913L119.43 61.4355L119.189 59.3055L123.495 58.8224L123.978 63.0823C123.705 63.4353 123.326 63.7798 122.839 64.1158C122.734 64.1885 122.624 64.2608 122.508 64.3327C122.434 64.3785 122.357 64.4224 122.277 64.4645ZM124.159 64.4416L126.973 64.126L127.375 62.344L131.102 61.9258L131.904 63.5727L135.217 63.201L130.214 53.5445L126.775 53.9302L124.159 64.4416ZM130.11 59.8872L128.907 57.4168C128.841 57.2773 128.787 57.144 128.744 57.0169C128.744 57.0165 128.744 57.0161 128.744 57.0157C128.739 57.0019 128.735 56.9881 128.731 56.9744C128.687 56.837 128.65 56.7079 128.617 56.5873C128.617 56.5852 128.616 56.5832 128.616 56.5811L128.574 56.5858C128.574 56.5879 128.574 56.5901 128.574 56.5922C128.569 56.717 128.562 56.8535 128.551 57.0016C128.55 57.0115 128.549 57.0213 128.548 57.0313C128.536 57.1685 128.512 57.3131 128.477 57.4651L127.873 60.1381L130.11 59.8872ZM138.218 62.8644L137.612 57.5118C137.594 57.3515 137.57 57.1767 137.54 56.9873C137.54 56.9863 137.539 56.9854 137.539 56.9844C137.538 56.9786 137.537 56.9728 137.536 56.967C137.509 56.7677 137.48 56.5869 137.448 56.4244C137.447 56.4219 137.447 56.4194 137.446 56.4169L137.502 56.4106C137.543 56.5726 137.591 56.7523 137.646 56.9495C137.646 56.9504 137.647 56.9512 137.647 56.9521C137.647 56.9529 137.647 56.9537 137.648 56.9545C137.707 57.1486 137.772 57.3258 137.841 57.4861L140.17 62.6454L142.684 62.3634L143.822 56.8151C143.854 56.6434 143.875 56.4567 143.885 56.2548C143.885 56.254 143.885 56.2531 143.885 56.2523C143.885 56.2516 143.885 56.2508 143.885 56.25C143.899 56.0449 143.908 55.8587 143.913 55.6914L143.961 55.686C143.961 55.6882 143.961 55.6904 143.961 55.6927C143.966 55.8584 143.976 56.0419 143.989 56.2431C143.99 56.2487 143.99 56.2544 143.991 56.26C143.991 56.2606 143.991 56.2613 143.991 56.2619C144.008 56.4534 144.026 56.6295 144.044 56.7902L144.65 62.1428L147.727 61.7976L146.587 51.7286L142.503 52.1868L141.373 57.5521C141.345 57.7066 141.321 57.8447 141.3 57.9661C141.3 57.9669 141.3 57.9676 141.3 57.9683C141.297 57.9847 141.294 58.0007 141.292 58.0164C141.274 58.1482 141.265 58.3136 141.264 58.5126C141.264 58.514 141.264 58.5154 141.264 58.5168L141.229 58.5207C141.229 58.5193 141.229 58.518 141.228 58.5166C141.183 58.3228 141.137 58.1659 141.091 58.0459C141.084 58.0267 141.076 58.007 141.069 57.9867C141.068 57.984 141.066 57.9813 141.065 57.9786C141.022 57.8687 140.97 57.7439 140.908 57.6043L138.627 52.6216L134.613 53.072L135.752 63.141L138.218 62.8644ZM156.937 60.7644L156.683 58.5168L152.272 59.0116L152.067 57.1998L155.776 56.7836L155.53 54.6122L151.821 55.0283L151.644 53.4654L155.972 52.9799L155.714 50.7047L148.352 51.5307L149.491 61.5997L156.937 60.7644ZM156.972 53.4067C156.975 53.4503 156.98 53.4943 156.985 53.5386C157.022 53.8511 157.096 54.136 157.208 54.3931C157.212 54.4029 157.217 54.4127 157.221 54.4225C157.285 54.5647 157.361 54.6982 157.448 54.8232C157.617 55.0646 157.83 55.2739 158.086 55.451C158.116 55.472 158.147 55.4925 158.179 55.5126C158.768 55.8814 159.487 56.1387 160.334 56.2844C160.487 56.3107 160.644 56.3334 160.806 56.3524C161.062 56.3821 161.291 56.4124 161.491 56.4432C161.521 56.4477 161.549 56.4522 161.577 56.4568C161.696 56.4759 161.804 56.4952 161.901 56.5148C162.035 56.5417 162.15 56.5691 162.244 56.5969C162.353 56.6293 162.436 56.6622 162.491 56.6957C162.692 56.8178 162.81 57.0333 162.845 57.3422C162.872 57.582 162.794 57.7822 162.611 57.9428C162.427 58.1035 162.15 58.2046 161.78 58.2461C161.694 58.2557 161.612 58.2603 161.534 58.2598C161.506 58.2596 161.479 58.2588 161.452 58.2573C161.219 58.2447 161.022 58.1843 160.86 58.0762C160.769 58.0154 160.693 57.9392 160.631 57.8475C160.63 57.8461 160.63 57.8447 160.629 57.8433C160.534 57.7004 160.474 57.5202 160.449 57.3029L160.423 57.0747L157.326 57.4222L157.363 57.7542C157.364 57.7647 157.366 57.7752 157.367 57.7857C157.394 58.0137 157.44 58.2268 157.503 58.4248C157.601 58.7331 157.743 59.005 157.927 59.2406C158.139 59.5113 158.408 59.734 158.734 59.9087C158.773 59.9292 158.812 59.9491 158.852 59.9683C159.729 60.3881 160.791 60.5281 162.036 60.3884C163.301 60.2466 164.296 59.8618 165.022 59.2341C165.753 58.6058 166.057 57.75 165.934 56.6665C165.836 55.8359 165.533 55.2006 165.024 54.7607C164.926 54.6759 164.821 54.5983 164.707 54.5281C164.057 54.1212 163.261 53.8427 162.32 53.6926C162.254 53.682 162.187 53.6721 162.119 53.6629C161.97 53.6422 161.83 53.6223 161.699 53.6032C161.589 53.5871 161.485 53.5715 161.389 53.5565C161.373 53.5541 161.358 53.5517 161.343 53.5493C161.295 53.5417 161.248 53.5343 161.204 53.527C161.111 53.5119 161.025 53.4973 160.948 53.4834C160.94 53.4821 160.933 53.4808 160.926 53.4795C160.729 53.4437 160.581 53.412 160.483 53.3842C160.465 53.3789 160.448 53.3738 160.433 53.3688C160.427 53.3666 160.421 53.3643 160.415 53.362C160.406 53.3581 160.396 53.3541 160.387 53.3498C160.21 53.2692 160.11 53.1204 160.085 52.9036C160.062 52.6962 160.126 52.5231 160.28 52.3846C160.402 52.2692 160.592 52.1874 160.847 52.139C160.861 52.1364 160.875 52.1338 160.889 52.1314C160.938 52.123 160.989 52.1158 161.043 52.1098C161.358 52.0745 161.612 52.1168 161.805 52.2368C161.831 52.2528 161.856 52.2703 161.88 52.2891C162.065 52.4326 162.181 52.6333 162.226 52.8913C162.226 52.8917 162.227 52.8922 162.227 52.8926C162.231 52.9202 162.235 52.9483 162.239 52.9772L162.262 53.1846L165.284 52.8457L165.249 52.5414C165.181 51.9392 164.974 51.4365 164.628 51.0333C164.42 50.7913 164.163 50.5851 163.855 50.4147C163.035 49.9605 162.008 49.8025 160.777 49.9406C159.536 50.0799 158.564 50.4644 157.861 51.0941C157.795 51.1539 157.732 51.2155 157.673 51.2787C157.257 51.7247 157.023 52.2544 156.972 52.8677C156.957 53.0407 156.957 53.2204 156.972 53.4067Z" fill="white"/>
<path d="M5.73177 24.4211L7.33857 32.3335L3.38672 33.89L8.12025 39.4676L4.95009 42.0186L11.6813 45.6938L9.94418 49.2392L17.5439 49.931L17.4136 53.9088L24.579 51.4011L26.1424 55.0762L31.6576 49.931L34.5672 52.6117L37.5203 45.6938L41.255 47.0774L41.1247 39.5109L45.0765 39.2082L41.9064 32.3335L45.4239 30.431L39.6482 25.502L42.1235 22.3889L34.7844 20.1406L35.8266 16.2493L28.2269 17.2437L27.4886 13.2227L20.9746 17.2437L18.7598 13.828L14.4171 20.1838L10.9864 17.9355L9.59676 25.502L5.73177 24.4211Z" fill="#BB6BD9"/>
<path fill-rule="evenodd" clip-rule="evenodd" d="M28.168 11.7012L28.9936 16.1978L37.1002 15.137L35.9291 19.5096L43.7174 21.8955L40.9498 25.3763L47.0758 30.6043L43.1307 32.7379L46.4972 40.0386L42.0827 40.3767L42.2215 48.4338L38.0366 46.8834L34.9119 54.2035L31.6635 51.2106L25.8036 56.6774L24.0591 52.5762L16.43 55.2462L16.5762 50.7829L8.50231 50.048L10.4439 46.0851L3.26876 42.1675L6.78243 39.3401L1.82422 33.4978L6.2619 31.7499L4.50611 23.1037L8.85866 24.321L10.3182 16.3738L14.1622 18.893L18.7822 12.1313L21.266 15.9618L28.168 11.7012ZM26.813 14.7426L20.687 18.5242L18.7412 15.5232L14.6758 21.4732L11.6584 19.4957L10.3386 26.6815L6.96119 25.7369L8.41898 32.9156L4.95297 34.2808L9.46182 39.5936L6.63516 41.8682L12.9224 45.301L11.3898 48.429L18.5153 49.0776L18.4009 52.57L25.1028 50.2245L26.4849 53.4736L31.6555 48.6499L34.2263 51.0185L37.0077 44.5026L40.2922 45.7195L40.1704 38.6436L43.6596 38.3763L40.6858 31.9275L43.7758 30.2563L38.3503 25.6262L40.5333 22.8808L33.6434 20.7701L34.5568 17.36L27.4639 18.2881L26.813 14.7426Z" fill="white"/>
<path fill-rule="evenodd" clip-rule="evenodd" d="M26.337 34.3572C26.337 35.2034 25.6557 35.9176 24.7233 36.1426V37.0366C24.7233 37.0462 24.7232 37.0559 24.7232 37.0655C24.7307 37.6974 24.9862 38.3018 25.4355 38.7493C25.8918 39.2035 26.5106 39.4587 27.1558 39.4587H27.3441C27.9998 39.4587 28.636 39.2365 29.148 38.8287L29.9778 38.1677L30.7617 39.1433L29.9319 39.8043C29.1974 40.3893 28.2848 40.7081 27.3441 40.7081H27.1558C26.1778 40.7081 25.2398 40.3212 24.5482 39.6327C24.3788 39.464 24.2275 39.2806 24.0957 39.0854C23.9639 39.2806 23.8126 39.464 23.6432 39.6328C22.9516 40.3213 22.0137 40.7081 21.0356 40.7081H20.8473C19.9066 40.7081 18.994 40.3894 18.2595 39.8044L17.4297 39.1434L18.2136 38.1678L19.0434 38.8288C19.5554 39.2366 20.1916 39.4588 20.8473 39.4588H21.0356C21.6808 39.4588 22.2996 39.2036 22.7559 38.7493C23.2053 38.3019 23.4607 37.6975 23.4683 37.0655C23.4682 37.0558 23.4681 37.0462 23.4681 37.0365V36.1423C22.5363 35.917 21.8555 35.2031 21.8555 34.3572C21.8555 33.3304 22.8587 32.498 24.0963 32.498C25.3338 32.498 26.337 33.3304 26.337 34.3572Z" fill="white"/>
</svg>
