<svg width="36" height="32" viewBox="0 0 36 32" fill="none" xmlns="http://www.w3.org/2000/svg">
<path d="M35.931 7.38965L23.304 18.6136C21.8961 19.862 19.9886 20.563 18 20.563C16.0114 20.563 14.1039 19.862 12.696 18.6136L0.069 7.38965C0.048 7.60032 0 7.79098 0 8.00032V24.0003C0.00238179 25.7678 0.793323 27.4622 2.19933 28.712C3.60534 29.9618 5.51161 30.6649 7.5 30.667H28.5C30.4884 30.6649 32.3947 29.9618 33.8007 28.712C35.2067 27.4622 35.9976 25.7678 36 24.0003V8.00032C36 7.79098 35.952 7.60032 35.931 7.38965Z" fill="url(#paint0_linear_1569_4677)"/>
<path d="M21.1842 16.7277L34.8852 4.54767C34.2215 3.56943 33.2854 2.75972 32.1671 2.19665C31.0489 1.63357 29.7864 1.33613 28.5012 1.33301H7.50119C6.21602 1.33613 4.95344 1.63357 3.83523 2.19665C2.71702 2.75972 1.78091 3.56943 1.11719 4.54767L14.8182 16.7277C15.6635 17.4761 16.8081 17.8963 18.0012 17.8963C19.1943 17.8963 20.3388 17.4761 21.1842 16.7277Z" fill="url(#paint1_linear_1569_4677)"/>
<defs>
<linearGradient id="paint0_linear_1569_4677" x1="14.125" y1="7.38965" x2="19.2789" y2="33.7311" gradientUnits="userSpaceOnUse">
<stop offset="0.438801" stop-color="#1E1D43"/>
<stop offset="1" stop-color="#8036A3"/>
</linearGradient>
<linearGradient id="paint1_linear_1569_4677" x1="14.3664" y1="1.33301" x2="17.1927" y2="20.3747" gradientUnits="userSpaceOnUse">
<stop offset="0.438801" stop-color="#1E1D43"/>
<stop offset="1" stop-color="#8036A3"/>
</linearGradient>
</defs>
</svg>
