<svg width="82" height="60" viewBox="0 0 82 60" fill="none" xmlns="http://www.w3.org/2000/svg">
<path d="M16.9606 3.70216C17.2555 2.65184 18.7445 2.65183 19.0394 3.70216L21.7818 13.4706C21.8836 13.8332 22.1668 14.1164 22.5294 14.2182L32.2978 16.9606C33.3482 17.2555 33.3482 18.7445 32.2978 19.0394L22.5294 21.7818C22.1668 21.8836 21.8836 22.1668 21.7818 22.5294L19.0394 32.2978C18.7445 33.3482 17.2555 33.3482 16.9606 32.2978L14.2182 22.5294C14.1164 22.1668 13.8332 21.8836 13.4706 21.7818L3.70216 19.0394C2.65184 18.7445 2.65183 17.2555 3.70216 16.9606L13.4706 14.2182C13.8332 14.1164 14.1164 13.8332 14.2182 13.4706L16.9606 3.70216Z" fill="#FF75F1"/>
<path d="M21.9606 39.7022C22.2555 38.6518 23.7445 38.6518 24.0394 39.7022L25.2474 44.0051C25.3491 44.3676 25.6324 44.6509 25.9949 44.7526L30.2978 45.9606C31.3482 46.2555 31.3482 47.7445 30.2978 48.0394L25.9949 49.2474C25.6324 49.3491 25.3491 49.6324 25.2474 49.9949L24.0394 54.2978C23.7445 55.3482 22.2555 55.3482 21.9606 54.2978L20.7526 49.9949C20.6509 49.6324 20.3676 49.3491 20.0051 49.2474L15.7022 48.0394C14.6518 47.7445 14.6518 46.2555 15.7022 45.9606L20.0051 44.7526C20.3676 44.6509 20.6509 44.3676 20.7526 44.0051L21.9606 39.7022Z" fill="#9975FF"/>
<path d="M56.9606 15.7022C57.2555 14.6518 58.7445 14.6518 59.0394 15.7022L63.097 30.1554C63.1988 30.5179 63.4821 30.8012 63.8446 30.903L78.2978 34.9606C79.3482 35.2555 79.3482 36.7445 78.2978 37.0394L63.8446 41.097C63.4821 41.1988 63.1988 41.4821 63.097 41.8446L59.0394 56.2978C58.7445 57.3482 57.2555 57.3482 56.9606 56.2978L52.903 41.8446C52.8012 41.4821 52.5179 41.1988 52.1554 41.097L37.7022 37.0394C36.6518 36.7445 36.6518 35.2555 37.7022 34.9606L52.1554 30.903C52.5179 30.8012 52.8012 30.5179 52.903 30.1554L56.9606 15.7022Z" fill="white"/>
</svg>
