<svg width="75" height="75" viewBox="0 0 75 75" fill="none" xmlns="http://www.w3.org/2000/svg">
<path fill-rule="evenodd" clip-rule="evenodd" d="M70.5687 13.4487C72.4784 12.7667 74.4875 14.1824 74.4875 16.2104V54.9362C74.4875 56.0469 73.8599 57.0623 72.8665 57.5591L39.0565 74.4641C37.1066 75.439 34.8125 74.0211 34.8125 71.8412V28.2854C34.8125 27.0461 35.5916 25.9405 36.7587 25.5237L70.5687 13.4487ZM69.3125 19.3925L39.9875 29.8657V68.2127L69.3125 53.5502V19.3925Z" fill="white"/>
<path fill-rule="evenodd" clip-rule="evenodd" d="M0.3125 16.2104C0.3125 14.1825 2.32151 12.7666 4.2313 13.4487L38.0413 25.5237C39.2084 25.9405 39.9875 27.046 39.9875 28.2854V71.8412C39.9875 74.0211 37.6934 75.439 35.7435 74.4641L1.93355 57.5591C0.940058 57.0623 0.3125 56.0469 0.3125 54.9362V16.2104ZM5.4875 19.3925V53.5502L34.8125 68.2127V29.8657L5.4875 19.3925Z" fill="white"/>
<path fill-rule="evenodd" clip-rule="evenodd" d="M37.4028 6.14771L10.596 15.7216L37.4028 25.2954L64.2096 15.7216L37.4028 6.14771ZM36.4165 1.00483C37.0543 0.777038 37.7513 0.777036 38.3891 1.00483L71.8634 12.9599C74.4583 13.8867 74.4583 17.5565 71.8634 18.4832L38.3891 30.4383C37.7513 30.6661 37.0543 30.6661 36.4165 30.4383L2.94229 18.4832C0.34734 17.5565 0.347385 13.8867 2.94229 12.9599L36.4165 1.00483Z" fill="white"/>
</svg>
