<svg width="45" height="36" viewBox="0 0 45 36" fill="none" xmlns="http://www.w3.org/2000/svg">
<path d="M44.9138 7.51172L29.13 21.1363C27.3701 22.6516 24.9858 23.5026 22.5 23.5026C20.0142 23.5026 17.6299 22.6516 15.87 21.1363L0.08625 7.51172C0.06 7.76744 0 7.99889 0 8.25299V27.675C0.00297723 29.8205 0.991654 31.8774 2.74916 33.3945C4.50667 34.9115 6.88951 35.765 9.375 35.7675H35.625C38.1105 35.765 40.4933 34.9115 42.2508 33.3945C44.0083 31.8774 44.997 29.8205 45 27.675V8.25299C45 7.99889 44.94 7.76744 44.9138 7.51172Z" fill="white"/>
<path d="M26.5448 18.6664L43.9539 4.04466C43.1105 2.87031 41.921 1.89828 40.5002 1.22232C39.0794 0.546365 37.4751 0.189293 35.8421 0.185547H9.15864C7.52566 0.189293 5.92137 0.546365 4.50053 1.22232C3.07968 1.89828 1.89022 2.87031 1.04688 4.04466L18.4559 18.6664C19.5301 19.5648 20.9843 20.0693 22.5004 20.0693C24.0164 20.0693 25.4707 19.5648 26.5448 18.6664V18.6664Z" fill="white"/>
</svg>
