<svg width="53" height="73" viewBox="0 0 53 73" fill="none" xmlns="http://www.w3.org/2000/svg">
<path fill-rule="evenodd" clip-rule="evenodd" d="M28.9367 1.55048C30.5433 -0.863999 34.3057 0.273383 34.3057 3.17346V28.6309L49.3732 26.6544C51.904 26.3224 53.6195 29.1603 52.1493 31.2468L23.7368 71.5694C22.0896 73.9072 18.4121 72.7417 18.4121 69.8818V44.7764L3.766 48.6198C1.16083 49.3035 -0.908885 46.4054 0.583163 44.163L28.9367 1.55048ZM29.1355 10.585L8.14995 42.1241L18.1802 39.4919C20.9114 38.7752 23.5823 40.8356 23.5823 43.6593V62.8126L44.9801 32.4452L34.0044 33.885C31.4244 34.2234 29.1355 32.2151 29.1355 29.6131V10.585Z" fill="white"/>
</svg>
