<svg width="45" height="39" viewBox="0 0 45 39" fill="none" xmlns="http://www.w3.org/2000/svg">
<path d="M35.8395 7.66492L11.8339 22.6694L1.58977 19.4573C1.01821 19.2813 -0.0985377 18.7621 0.00698143 18.0933C0.112501 17.4245 0.652513 17.1295 1.01122 16.9514L41.5991 1.0647C42.1267 0.80069 43.3929 0.431077 44.2371 1.0647C45.0812 1.69832 45.0578 3.29411 44.9405 4.0128L37.9059 36.7059C37.7301 37.1606 37.1761 38.1052 36.3671 38.246C35.5581 38.3868 34.8576 38.0993 34.6084 37.938L24.0126 30.1937C22.2246 31.9097 18.552 35.4123 18.1651 35.6939C17.7782 35.9755 17.1831 35.9579 16.934 35.9139L17.6814 25.4855L36.7188 8.36895C36.924 8.19294 37.2306 7.73748 37.0196 7.49107C36.8086 7.24467 36.2282 7.44707 35.8395 7.66492Z" fill="white"/>
</svg>
