<svg width="71" height="61" viewBox="0 0 71 61" fill="none" xmlns="http://www.w3.org/2000/svg">
<path fill-rule="evenodd" clip-rule="evenodd" d="M15.677 30.4799C15.677 25.5833 17.1291 20.7966 19.8495 16.7251C22.5699 12.6537 26.4366 9.48042 30.9605 7.60655C35.4845 5.73267 40.4625 5.24238 45.265 6.19767C50.0676 7.15296 54.4791 9.51093 57.9415 12.9734C61.404 16.4359 63.762 20.8473 64.7173 25.6499C65.6726 30.4525 65.1823 35.4305 63.3084 39.9544C61.4345 44.4783 58.2612 48.345 54.1898 51.0654C50.1184 53.7859 45.3317 55.2379 40.435 55.2379C39.0205 55.2379 37.8738 56.3846 37.8738 57.7991C37.8738 59.2136 39.0205 60.3603 40.435 60.3603C46.3448 60.3603 52.1218 58.6078 57.0356 55.3245C61.9494 52.0412 65.7793 47.3745 68.0408 41.9146C70.3024 36.4547 70.8941 30.4468 69.7412 24.6506C68.5882 18.8544 65.7424 13.5302 61.5636 9.35135C57.3847 5.17252 52.0606 2.32669 46.2644 1.17376C40.4681 0.0208189 34.4602 0.61255 29.0003 2.87412C23.5404 5.13569 18.8737 8.96553 15.5904 13.8793C12.3071 18.7931 10.5547 24.5702 10.5547 30.4799C10.5547 31.8944 11.7014 33.0411 13.1159 33.0411C14.5304 33.0411 15.677 31.8944 15.677 30.4799Z" fill="white"/>
<path fill-rule="evenodd" clip-rule="evenodd" d="M1.06265 21.838C0.0624509 22.8382 0.0624509 24.4599 1.06265 25.4601L10.1 34.4974C11.767 36.1644 14.4697 36.1644 16.1367 34.4974L25.1741 25.4601C26.1742 24.4599 26.1742 22.8382 25.174 21.838C24.1738 20.8378 22.5522 20.8378 21.552 21.838L13.1184 30.2717L4.68469 21.838C3.68449 20.8378 2.06285 20.8378 1.06265 21.838Z" fill="white"/>
<path fill-rule="evenodd" clip-rule="evenodd" d="M38.7291 14.2578C40.1436 14.2578 41.2903 15.4045 41.2903 16.819V32.6625L48.8663 38.7233C49.9709 39.6069 50.1499 41.2187 49.2663 42.3232C48.3827 43.4277 46.771 43.6068 45.6664 42.7232L37.2574 35.9959C36.5688 35.4451 36.168 34.6111 36.168 33.7293V16.819C36.168 15.4045 37.3146 14.2578 38.7291 14.2578Z" fill="white"/>
</svg>
